<mxfile host="app.diagrams.net" modified="2023-12-01T23:07:59.937Z" agent="Mozilla/5.0 (Windows NT 10.0; Win64; x64) AppleWebKit/537.36 (KHTML, like Gecko) Chrome/118.0.0.0 Safari/537.36" etag="fvIo1EhHeu3Q1vmuhSqF" version="22.1.5" type="device">
  <diagram name="Page-1" id="7YFFsgCQQFRoEPlq_2eK">
    <mxGraphModel dx="661" dy="665" grid="1" gridSize="10" guides="1" tooltips="1" connect="1" arrows="1" fold="1" page="1" pageScale="1" pageWidth="850" pageHeight="1100" math="0" shadow="0">
      <root>
        <mxCell id="0" />
        <mxCell id="1" parent="0" />
        <mxCell id="WTnp99DrQJHhH8xW_Rlx-39" value="Относятся к" style="edgeStyle=orthogonalEdgeStyle;rounded=0;orthogonalLoop=1;jettySize=auto;html=1;entryX=0;entryY=0.5;entryDx=0;entryDy=0;endArrow=diamond;endFill=1;" edge="1" parent="1" source="S5cSpoFu1Uy1OTFDy-dR-5" target="S5cSpoFu1Uy1OTFDy-dR-11">
          <mxGeometry relative="1" as="geometry" />
        </mxCell>
        <mxCell id="WTnp99DrQJHhH8xW_Rlx-40" value="Связаны с" style="edgeStyle=orthogonalEdgeStyle;rounded=0;orthogonalLoop=1;jettySize=auto;html=1;entryX=0;entryY=0.5;entryDx=0;entryDy=0;exitX=1.014;exitY=0.885;exitDx=0;exitDy=0;exitPerimeter=0;endArrow=diamond;endFill=0;" edge="1" parent="1" source="S5cSpoFu1Uy1OTFDy-dR-10" target="WTnp99DrQJHhH8xW_Rlx-30">
          <mxGeometry relative="1" as="geometry">
            <Array as="points">
              <mxPoint x="310" y="375" />
              <mxPoint x="310" y="418" />
            </Array>
          </mxGeometry>
        </mxCell>
        <mxCell id="WTnp99DrQJHhH8xW_Rlx-41" value="Содержат в себе" style="edgeStyle=orthogonalEdgeStyle;rounded=0;orthogonalLoop=1;jettySize=auto;html=1;entryX=0;entryY=0.5;entryDx=0;entryDy=0;exitX=1.014;exitY=0.808;exitDx=0;exitDy=0;exitPerimeter=0;endArrow=diamond;endFill=1;" edge="1" parent="1" source="S5cSpoFu1Uy1OTFDy-dR-9" target="WTnp99DrQJHhH8xW_Rlx-7">
          <mxGeometry relative="1" as="geometry" />
        </mxCell>
        <mxCell id="S5cSpoFu1Uy1OTFDy-dR-5" value="Новостные статьи" style="swimlane;fontStyle=0;childLayout=stackLayout;horizontal=1;startSize=26;fillColor=none;horizontalStack=0;resizeParent=1;resizeParentMax=0;resizeLast=0;collapsible=1;marginBottom=0;whiteSpace=wrap;html=1;" parent="1" vertex="1">
          <mxGeometry x="30" y="252" width="140" height="178" as="geometry" />
        </mxCell>
        <mxCell id="S5cSpoFu1Uy1OTFDy-dR-6" value="&lt;div&gt;Заголовок&lt;/div&gt;" style="text;strokeColor=none;fillColor=none;align=left;verticalAlign=top;spacingLeft=4;spacingRight=4;overflow=hidden;rotatable=0;points=[[0,0.5],[1,0.5]];portConstraint=eastwest;whiteSpace=wrap;html=1;" parent="S5cSpoFu1Uy1OTFDy-dR-5" vertex="1">
          <mxGeometry y="26" width="140" height="22" as="geometry" />
        </mxCell>
        <mxCell id="S5cSpoFu1Uy1OTFDy-dR-7" value="Автор" style="text;strokeColor=none;fillColor=none;align=left;verticalAlign=top;spacingLeft=4;spacingRight=4;overflow=hidden;rotatable=0;points=[[0,0.5],[1,0.5]];portConstraint=eastwest;whiteSpace=wrap;html=1;" parent="S5cSpoFu1Uy1OTFDy-dR-5" vertex="1">
          <mxGeometry y="48" width="140" height="26" as="geometry" />
        </mxCell>
        <mxCell id="S5cSpoFu1Uy1OTFDy-dR-8" value="Дата публикации" style="text;strokeColor=none;fillColor=none;align=left;verticalAlign=top;spacingLeft=4;spacingRight=4;overflow=hidden;rotatable=0;points=[[0,0.5],[1,0.5]];portConstraint=eastwest;whiteSpace=wrap;html=1;" parent="S5cSpoFu1Uy1OTFDy-dR-5" vertex="1">
          <mxGeometry y="74" width="140" height="26" as="geometry" />
        </mxCell>
        <mxCell id="S5cSpoFu1Uy1OTFDy-dR-10" value="Картинка" style="text;strokeColor=none;fillColor=none;align=left;verticalAlign=top;spacingLeft=4;spacingRight=4;overflow=hidden;rotatable=0;points=[[0,0.5],[1,0.5]];portConstraint=eastwest;whiteSpace=wrap;html=1;" parent="S5cSpoFu1Uy1OTFDy-dR-5" vertex="1">
          <mxGeometry y="100" width="140" height="26" as="geometry" />
        </mxCell>
        <mxCell id="S5cSpoFu1Uy1OTFDy-dR-9" value="Ссылка на источник" style="text;strokeColor=none;fillColor=none;align=left;verticalAlign=top;spacingLeft=4;spacingRight=4;overflow=hidden;rotatable=0;points=[[0,0.5],[1,0.5]];portConstraint=eastwest;whiteSpace=wrap;html=1;" parent="S5cSpoFu1Uy1OTFDy-dR-5" vertex="1">
          <mxGeometry y="126" width="140" height="26" as="geometry" />
        </mxCell>
        <mxCell id="WTnp99DrQJHhH8xW_Rlx-6" value="Текст&lt;br&gt;" style="text;strokeColor=none;fillColor=none;align=left;verticalAlign=top;spacingLeft=4;spacingRight=4;overflow=hidden;rotatable=0;points=[[0,0.5],[1,0.5]];portConstraint=eastwest;whiteSpace=wrap;html=1;" vertex="1" parent="S5cSpoFu1Uy1OTFDy-dR-5">
          <mxGeometry y="152" width="140" height="26" as="geometry" />
        </mxCell>
        <mxCell id="S5cSpoFu1Uy1OTFDy-dR-11" value="Категории" style="swimlane;fontStyle=0;childLayout=stackLayout;horizontal=1;startSize=26;fillColor=none;horizontalStack=0;resizeParent=1;resizeParentMax=0;resizeLast=0;collapsible=1;marginBottom=0;whiteSpace=wrap;html=1;" parent="1" vertex="1">
          <mxGeometry x="390" y="310" width="140" height="52" as="geometry" />
        </mxCell>
        <mxCell id="S5cSpoFu1Uy1OTFDy-dR-13" value="Текст" style="text;strokeColor=none;fillColor=none;align=left;verticalAlign=top;spacingLeft=4;spacingRight=4;overflow=hidden;rotatable=0;points=[[0,0.5],[1,0.5]];portConstraint=eastwest;whiteSpace=wrap;html=1;" parent="S5cSpoFu1Uy1OTFDy-dR-11" vertex="1">
          <mxGeometry y="26" width="140" height="26" as="geometry" />
        </mxCell>
        <mxCell id="WTnp99DrQJHhH8xW_Rlx-7" value="Аннотации" style="swimlane;fontStyle=0;childLayout=stackLayout;horizontal=1;startSize=26;fillColor=none;horizontalStack=0;resizeParent=1;resizeParentMax=0;resizeLast=0;collapsible=1;marginBottom=0;whiteSpace=wrap;html=1;" vertex="1" parent="1">
          <mxGeometry x="390" y="480" width="140" height="52" as="geometry" />
        </mxCell>
        <mxCell id="WTnp99DrQJHhH8xW_Rlx-8" value="Текст" style="text;strokeColor=none;fillColor=none;align=left;verticalAlign=top;spacingLeft=4;spacingRight=4;overflow=hidden;rotatable=0;points=[[0,0.5],[1,0.5]];portConstraint=eastwest;whiteSpace=wrap;html=1;" vertex="1" parent="WTnp99DrQJHhH8xW_Rlx-7">
          <mxGeometry y="26" width="140" height="26" as="geometry" />
        </mxCell>
        <mxCell id="WTnp99DrQJHhH8xW_Rlx-16" value="Парсер" style="swimlane;fontStyle=1;align=center;verticalAlign=top;childLayout=stackLayout;horizontal=1;startSize=26;horizontalStack=0;resizeParent=1;resizeParentMax=0;resizeLast=0;collapsible=1;marginBottom=0;whiteSpace=wrap;html=1;" vertex="1" parent="1">
          <mxGeometry x="190" y="60" width="160" height="86" as="geometry" />
        </mxCell>
        <mxCell id="WTnp99DrQJHhH8xW_Rlx-17" value="Статья" style="text;strokeColor=none;fillColor=none;align=left;verticalAlign=top;spacingLeft=4;spacingRight=4;overflow=hidden;rotatable=0;points=[[0,0.5],[1,0.5]];portConstraint=eastwest;whiteSpace=wrap;html=1;" vertex="1" parent="WTnp99DrQJHhH8xW_Rlx-16">
          <mxGeometry y="26" width="160" height="26" as="geometry" />
        </mxCell>
        <mxCell id="WTnp99DrQJHhH8xW_Rlx-18" value="" style="line;strokeWidth=1;fillColor=none;align=left;verticalAlign=middle;spacingTop=-1;spacingLeft=3;spacingRight=3;rotatable=0;labelPosition=right;points=[];portConstraint=eastwest;strokeColor=inherit;" vertex="1" parent="WTnp99DrQJHhH8xW_Rlx-16">
          <mxGeometry y="52" width="160" height="8" as="geometry" />
        </mxCell>
        <mxCell id="WTnp99DrQJHhH8xW_Rlx-19" value="Собрать()" style="text;strokeColor=none;fillColor=none;align=left;verticalAlign=top;spacingLeft=4;spacingRight=4;overflow=hidden;rotatable=0;points=[[0,0.5],[1,0.5]];portConstraint=eastwest;whiteSpace=wrap;html=1;" vertex="1" parent="WTnp99DrQJHhH8xW_Rlx-16">
          <mxGeometry y="60" width="160" height="26" as="geometry" />
        </mxCell>
        <mxCell id="WTnp99DrQJHhH8xW_Rlx-26" value="Новостные ресурсы" style="swimlane;fontStyle=0;childLayout=stackLayout;horizontal=1;startSize=26;fillColor=none;horizontalStack=0;resizeParent=1;resizeParentMax=0;resizeLast=0;collapsible=1;marginBottom=0;whiteSpace=wrap;html=1;" vertex="1" parent="1">
          <mxGeometry x="460" y="60" width="140" height="78" as="geometry" />
        </mxCell>
        <mxCell id="WTnp99DrQJHhH8xW_Rlx-28" value="Название" style="text;strokeColor=none;fillColor=none;align=left;verticalAlign=top;spacingLeft=4;spacingRight=4;overflow=hidden;rotatable=0;points=[[0,0.5],[1,0.5]];portConstraint=eastwest;whiteSpace=wrap;html=1;" vertex="1" parent="WTnp99DrQJHhH8xW_Rlx-26">
          <mxGeometry y="26" width="140" height="26" as="geometry" />
        </mxCell>
        <mxCell id="WTnp99DrQJHhH8xW_Rlx-27" value="Ссылка" style="text;strokeColor=none;fillColor=none;align=left;verticalAlign=top;spacingLeft=4;spacingRight=4;overflow=hidden;rotatable=0;points=[[0,0.5],[1,0.5]];portConstraint=eastwest;whiteSpace=wrap;html=1;" vertex="1" parent="WTnp99DrQJHhH8xW_Rlx-26">
          <mxGeometry y="52" width="140" height="26" as="geometry" />
        </mxCell>
        <mxCell id="WTnp99DrQJHhH8xW_Rlx-30" value="Теги" style="swimlane;fontStyle=0;childLayout=stackLayout;horizontal=1;startSize=26;fillColor=none;horizontalStack=0;resizeParent=1;resizeParentMax=0;resizeLast=0;collapsible=1;marginBottom=0;whiteSpace=wrap;html=1;" vertex="1" parent="1">
          <mxGeometry x="390" y="392" width="140" height="52" as="geometry" />
        </mxCell>
        <mxCell id="WTnp99DrQJHhH8xW_Rlx-31" value="Текст" style="text;strokeColor=none;fillColor=none;align=left;verticalAlign=top;spacingLeft=4;spacingRight=4;overflow=hidden;rotatable=0;points=[[0,0.5],[1,0.5]];portConstraint=eastwest;whiteSpace=wrap;html=1;" vertex="1" parent="WTnp99DrQJHhH8xW_Rlx-30">
          <mxGeometry y="26" width="140" height="26" as="geometry" />
        </mxCell>
        <mxCell id="WTnp99DrQJHhH8xW_Rlx-37" value="Обращается к" style="edgeStyle=orthogonalEdgeStyle;rounded=0;orthogonalLoop=1;jettySize=auto;html=1;entryX=-0.007;entryY=0.115;entryDx=0;entryDy=0;entryPerimeter=0;endArrow=diamond;endFill=1;" edge="1" parent="1" source="WTnp99DrQJHhH8xW_Rlx-16" target="WTnp99DrQJHhH8xW_Rlx-28">
          <mxGeometry relative="1" as="geometry" />
        </mxCell>
        <mxCell id="WTnp99DrQJHhH8xW_Rlx-38" value="Формирует в" style="edgeStyle=orthogonalEdgeStyle;rounded=0;orthogonalLoop=1;jettySize=auto;html=1;entryX=0.5;entryY=0;entryDx=0;entryDy=0;endArrow=diamond;endFill=0;" edge="1" parent="1" source="WTnp99DrQJHhH8xW_Rlx-17" target="S5cSpoFu1Uy1OTFDy-dR-5">
          <mxGeometry relative="1" as="geometry" />
        </mxCell>
        <mxCell id="WTnp99DrQJHhH8xW_Rlx-54" value="Нейронная сеть" style="swimlane;fontStyle=1;align=center;verticalAlign=top;childLayout=stackLayout;horizontal=1;startSize=26;horizontalStack=0;resizeParent=1;resizeParentMax=0;resizeLast=0;collapsible=1;marginBottom=0;whiteSpace=wrap;html=1;" vertex="1" parent="1">
          <mxGeometry x="260" y="190" width="160" height="86" as="geometry" />
        </mxCell>
        <mxCell id="WTnp99DrQJHhH8xW_Rlx-55" value="Контекст" style="text;strokeColor=none;fillColor=none;align=left;verticalAlign=top;spacingLeft=4;spacingRight=4;overflow=hidden;rotatable=0;points=[[0,0.5],[1,0.5]];portConstraint=eastwest;whiteSpace=wrap;html=1;" vertex="1" parent="WTnp99DrQJHhH8xW_Rlx-54">
          <mxGeometry y="26" width="160" height="26" as="geometry" />
        </mxCell>
        <mxCell id="WTnp99DrQJHhH8xW_Rlx-56" value="" style="line;strokeWidth=1;fillColor=none;align=left;verticalAlign=middle;spacingTop=-1;spacingLeft=3;spacingRight=3;rotatable=0;labelPosition=right;points=[];portConstraint=eastwest;strokeColor=inherit;" vertex="1" parent="WTnp99DrQJHhH8xW_Rlx-54">
          <mxGeometry y="52" width="160" height="8" as="geometry" />
        </mxCell>
        <mxCell id="WTnp99DrQJHhH8xW_Rlx-57" value="Анализировать()" style="text;strokeColor=none;fillColor=none;align=left;verticalAlign=top;spacingLeft=4;spacingRight=4;overflow=hidden;rotatable=0;points=[[0,0.5],[1,0.5]];portConstraint=eastwest;whiteSpace=wrap;html=1;" vertex="1" parent="WTnp99DrQJHhH8xW_Rlx-54">
          <mxGeometry y="60" width="160" height="26" as="geometry" />
        </mxCell>
        <mxCell id="WTnp99DrQJHhH8xW_Rlx-58" value="Получает из" style="edgeStyle=orthogonalEdgeStyle;rounded=0;orthogonalLoop=1;jettySize=auto;html=1;entryX=-0.006;entryY=0.154;entryDx=0;entryDy=0;entryPerimeter=0;startArrow=diamond;startFill=0;endArrow=diamond;endFill=1;" edge="1" parent="1" source="S5cSpoFu1Uy1OTFDy-dR-6" target="WTnp99DrQJHhH8xW_Rlx-55">
          <mxGeometry relative="1" as="geometry" />
        </mxCell>
        <mxCell id="WTnp99DrQJHhH8xW_Rlx-59" value="Относит к" style="edgeStyle=orthogonalEdgeStyle;rounded=0;orthogonalLoop=1;jettySize=auto;html=1;entryX=1;entryY=0.154;entryDx=0;entryDy=0;entryPerimeter=0;exitX=1;exitY=0.5;exitDx=0;exitDy=0;endArrow=diamond;endFill=1;" edge="1" parent="1" source="WTnp99DrQJHhH8xW_Rlx-57" target="S5cSpoFu1Uy1OTFDy-dR-13">
          <mxGeometry relative="1" as="geometry">
            <Array as="points">
              <mxPoint x="420" y="250" />
              <mxPoint x="560" y="250" />
              <mxPoint x="560" y="340" />
            </Array>
          </mxGeometry>
        </mxCell>
        <mxCell id="WTnp99DrQJHhH8xW_Rlx-60" value="Определяет" style="edgeStyle=orthogonalEdgeStyle;rounded=0;orthogonalLoop=1;jettySize=auto;html=1;entryX=1;entryY=0.25;entryDx=0;entryDy=0;endArrow=diamond;endFill=0;" edge="1" parent="1" source="WTnp99DrQJHhH8xW_Rlx-55" target="WTnp99DrQJHhH8xW_Rlx-30">
          <mxGeometry relative="1" as="geometry">
            <Array as="points">
              <mxPoint x="600" y="240" />
              <mxPoint x="600" y="405" />
            </Array>
          </mxGeometry>
        </mxCell>
        <mxCell id="WTnp99DrQJHhH8xW_Rlx-61" value="Формирует" style="edgeStyle=orthogonalEdgeStyle;rounded=0;orthogonalLoop=1;jettySize=auto;html=1;entryX=1;entryY=0.5;entryDx=0;entryDy=0;endArrow=diamond;endFill=1;" edge="1" parent="1" source="WTnp99DrQJHhH8xW_Rlx-55" target="WTnp99DrQJHhH8xW_Rlx-7">
          <mxGeometry relative="1" as="geometry">
            <Array as="points">
              <mxPoint x="640" y="229" />
              <mxPoint x="640" y="516" />
            </Array>
          </mxGeometry>
        </mxCell>
      </root>
    </mxGraphModel>
  </diagram>
</mxfile>
